<?xml version="1.0" standalone="no"?>
<!DOCTYPE svg PUBLIC "-//W3C//DTD SVG 20010904//EN"
 "http://www.w3.org/TR/2001/REC-SVG-20010904/DTD/svg10.dtd">
<svg version="1.0" xmlns="http://www.w3.org/2000/svg"
 width="1080.000000pt" height="1080.000000pt" viewBox="0 0 1080.000000 1080.000000"
 preserveAspectRatio="xMidYMid meet">

<g transform="translate(0.000000,1080.000000) scale(0.100000,-0.100000)"
fill="#000000" stroke="none">
<path d="M5130 9284 c-585 -27 -1094 -106 -1635 -254 -1027 -281 -2060 -843
-2850 -1553 -162 -146 -342 -325 -376 -373 -70 -102 -101 -207 -100 -341 0
-214 118 -406 311 -507 168 -89 373 -88 543 1 53 28 109 74 226 187 771 738
1696 1246 2733 1500 235 58 599 119 873 146 179 18 740 24 941 11 693 -47
1374 -211 1999 -481 652 -282 1226 -667 1787 -1197 149 -142 226 -191 339
-218 310 -73 612 105 703 415 22 72 22 219 1 301 -41 159 -103 233 -460 555
-882 793 -2036 1386 -3195 1639 -361 79 -635 121 -990 150 -170 14 -699 26
-850 19z"/>
<path d="M5075 7144 c-22 -2 -111 -11 -197 -19 -573 -55 -1180 -228 -1703
-485 -495 -244 -948 -563 -1300 -915 -142 -141 -180 -198 -210 -315 -25 -96
-17 -243 19 -335 85 -223 306 -366 546 -352 165 9 253 56 448 240 642 607
1460 978 2341 1062 178 17 551 19 726 4 791 -67 1537 -367 2153 -865 70 -57
186 -157 257 -223 142 -132 218 -180 326 -206 276 -65 558 92 651 363 18 54
23 88 22 177 0 234 -66 328 -466 672 -678 581 -1534 982 -2421 1133 -291 49
-449 62 -817 65 -184 1 -353 1 -375 -1z"/>
<path d="M5135 5140 c-695 -58 -1391 -377 -1871 -855 -75 -75 -120 -129 -141
-170 -111 -213 -73 -475 92 -640 105 -105 248 -165 389 -165 164 1 263 45 422
187 183 164 306 249 490 341 283 141 551 204 874 206 268 1 480 -35 711 -122
262 -99 435 -209 719 -458 123 -108 236 -154 380 -154 217 0 410 124 500 323
78 172 60 381 -46 534 -41 59 -176 189 -314 300 -442 358 -963 580 -1543 659
-137 18 -512 26 -662 14z"/>
<path d="M5314 2919 c-161 -21 -277 -79 -394 -198 -130 -131 -187 -260 -197
-441 -11 -211 78 -417 238 -550 64 -54 195 -121 270 -139 362 -86 729 131 819
485 61 238 -8 484 -186 659 -140 138 -355 210 -550 184z"/>
</g>
</svg>
