<?xml version="1.0" standalone="no"?>
<!DOCTYPE svg PUBLIC "-//W3C//DTD SVG 20010904//EN"
 "http://www.w3.org/TR/2001/REC-SVG-20010904/DTD/svg10.dtd">
<svg version="1.0" xmlns="http://www.w3.org/2000/svg"
 width="1080.000000pt" height="1080.000000pt" viewBox="0 0 1080.000000 1080.000000"
 preserveAspectRatio="xMidYMid meet">

<g transform="translate(0.000000,1080.000000) scale(0.100000,-0.100000)"
fill="#000000" stroke="none">
<path d="M4173 8960 c-61 -27 -127 -97 -146 -155 -14 -39 -17 -88 -17 -245 l0
-197 -92 -7 c-341 -25 -727 -154 -992 -331 l-67 -46 -67 44 c-223 148 -513
259 -812 313 -116 21 -376 24 -505 6 -159 -23 -431 -100 -472 -134 -8 -7 -13
-37 -13 -84 l0 -74 -120 0 -120 0 -11 -27 c-7 -18 -8 -325 -3 -934 l7 -907
-174 -4 c-203 -4 -237 -14 -314 -100 -77 -85 -76 -80 -73 -679 l3 -524 28 -57
c17 -34 46 -72 71 -93 81 -66 72 -65 653 -65 341 0 539 4 567 11 66 16 136 75
171 144 l30 59 3 313 c2 172 6 313 9 313 32 0 239 -36 313 -55 182 -45 301
-94 451 -182 l76 -45 6 -64 c16 -208 210 -335 400 -264 60 23 129 85 160 145
12 24 22 68 25 108 5 66 6 69 46 96 191 130 442 214 768 256 l47 6 3 -283 c3
-323 5 -328 94 -407 82 -72 81 -72 680 -69 l529 3 57 28 c32 16 73 47 92 69
67 78 67 74 64 679 l-3 544 -31 55 c-66 118 -145 150 -366 150 l-148 0 0 594
0 594 168 4 c159 3 170 4 224 31 32 16 73 47 92 69 67 78 67 74 64 679 l-3
544 -29 53 c-31 56 -96 111 -155 131 -24 8 -194 11 -580 10 -512 0 -549 -2
-588 -19z m1172 -83 c21 -12 53 -42 70 -65 l30 -44 3 -526 c3 -591 4 -581 -68
-646 -21 -19 -57 -40 -79 -46 -28 -7 -207 -10 -553 -8 l-513 3 -42 24 c-24 14
-55 42 -70 64 l-28 40 -3 531 c-3 581 -3 583 56 639 62 59 39 57 622 57 l535
0 40 -23z m-3494 -607 c240 -24 475 -94 709 -212 85 -43 178 -95 205 -116 l50
-38 3 -1087 c1 -598 0 -1087 -3 -1087 -3 0 -53 27 -111 61 -311 179 -686 289
-988 289 -75 0 -85 2 -106 24 -12 14 -43 35 -69 48 -43 21 -62 23 -259 26
l-212 4 2 986 3 987 100 33 c126 41 273 71 395 81 140 12 168 12 281 1z m2157
-255 l2 -260 -182 0 c-194 -1 -271 -11 -433 -61 -90 -27 -145 -57 -145 -78 0
-23 31 -48 49 -41 64 26 203 66 269 79 103 20 289 29 376 19 l69 -8 24 -45
c32 -60 64 -92 126 -126 l52 -29 213 -3 212 -3 0 -595 0 -594 -195 0 c-173 0
-200 -2 -250 -21 -67 -25 -116 -66 -150 -124 l-25 -42 -105 -7 c-199 -13 -403
-59 -597 -137 -116 -46 -275 -125 -352 -174 -30 -19 -58 -35 -61 -35 -3 0 -5
491 -5 1090 l0 1090 85 56 c179 117 457 230 673 274 108 22 253 39 312 36 l35
-1 3 -260z m-3018 -940 l0 -895 -85 0 -85 0 0 895 0 895 85 0 85 0 0 -895z
m3910 -210 l0 -595 -85 0 -85 0 0 595 0 595 85 0 85 0 0 -595z m394 -686 c56
-14 114 -62 137 -113 17 -38 19 -77 19 -561 0 -482 -2 -523 -19 -560 -23 -51
-80 -101 -131 -115 -27 -7 -209 -10 -552 -8 l-513 3 -42 24 c-24 14 -55 42
-70 64 l-28 40 -3 531 c-2 342 1 544 7 566 13 45 74 105 126 124 33 12 127 15
533 15 325 1 508 -3 536 -10z m-3823 -89 c56 -16 101 -51 129 -100 l25 -45 3
-495 c4 -547 1 -577 -51 -637 -65 -74 -50 -73 -632 -73 -582 0 -567 -1 -632
73 -52 60 -55 90 -51 637 l3 495 25 44 c14 24 37 53 51 63 62 46 76 47 599 48
302 0 509 -4 531 -10z m384 -100 c300 -35 626 -151 878 -313 l87 -57 0 -80 c0
-44 -2 -80 -3 -80 -2 0 -42 23 -88 51 -166 100 -375 189 -560 238 -126 34
-287 61 -364 61 -89 0 -92 2 -98 83 -3 40 -8 80 -12 90 -6 14 -1 17 31 17 22
0 80 -5 129 -10z m2153 -82 l3 -87 -43 -5 c-24 -3 -77 -8 -118 -11 -280 -21
-660 -158 -927 -333 l-23 -14 0 84 0 84 98 60 c195 123 381 201 613 258 128
32 298 56 369 52 24 -1 25 -3 28 -88z m-1973 -212 c237 -49 525 -168 713 -295
50 -33 99 -61 108 -61 9 0 57 27 107 61 277 185 704 328 985 329 l63 0 -3 -72
-3 -73 -120 -16 c-266 -36 -499 -114 -689 -228 -117 -71 -130 -87 -127 -162 7
-204 -229 -304 -369 -157 -39 42 -62 117 -54 178 5 42 3 47 -29 72 -186 145
-533 270 -844 303 l-63 7 0 75 0 76 103 -6 c56 -4 156 -18 222 -31z"/>
<path d="M4730 8760 c-185 -24 -346 -161 -401 -342 -29 -96 -24 -224 14 -318
l26 -64 -56 -155 c-58 -160 -60 -182 -16 -189 10 -2 93 25 184 58 l164 61 77
-11 c289 -45 558 184 558 474 0 301 -253 524 -550 486z m222 -109 c183 -71
288 -291 232 -482 -33 -112 -116 -208 -222 -257 -67 -30 -194 -41 -266 -23
-42 10 -52 8 -182 -39 -75 -28 -138 -49 -140 -48 -1 2 18 57 42 123 l45 120
-32 67 c-100 218 5 465 234 549 72 26 209 22 289 -10z"/>
<path d="M1740 7753 c-134 -14 -367 -78 -402 -110 -24 -21 -23 -50 1 -63 15
-8 33 -5 73 11 97 38 230 68 354 80 198 20 419 -10 603 -80 65 -24 94 -15 89
27 -2 21 -13 30 -61 49 -84 34 -237 72 -336 83 -82 9 -247 11 -321 3z"/>
<path d="M1718 7329 c-155 -19 -370 -86 -392 -121 -15 -25 5 -53 35 -52 13 1
56 13 95 27 134 49 265 70 424 70 172 -1 290 -19 442 -70 88 -29 111 -33 123
-23 22 18 18 47 -7 64 -36 24 -203 75 -297 91 -110 20 -324 27 -423 14z"/>
<path d="M1735 6910 c-140 -16 -362 -76 -397 -108 -24 -20 -23 -49 1 -62 15
-8 43 -2 123 25 144 48 267 67 428 67 161 0 283 -19 432 -69 118 -39 142 -36
136 16 -3 24 -13 29 -113 63 -60 20 -148 43 -195 52 -107 20 -311 28 -415 16z"/>
<path d="M1750 6490 c-155 -15 -402 -86 -424 -122 -16 -27 5 -53 40 -52 16 1
62 13 101 27 128 46 272 69 433 69 161 1 273 -18 430 -72 107 -37 118 -37 126
-3 10 37 -15 54 -133 92 -174 56 -388 79 -573 61z"/>
<path d="M3700 7334 c-145 -14 -413 -87 -441 -120 -15 -18 3 -64 26 -64 8 0
43 11 78 24 103 39 223 64 357 76 181 17 354 -5 537 -66 114 -38 137 -35 131
14 -2 21 -15 30 -73 53 -158 62 -436 100 -615 83z"/>
<path d="M3700 6914 c-142 -14 -388 -78 -430 -112 -16 -13 -21 -24 -16 -40 11
-33 37 -34 111 -7 275 104 613 105 908 4 96 -33 117 -30 117 18 0 18 -9 28
-37 40 -61 25 -189 62 -276 78 -82 15 -297 26 -377 19z"/>
<path d="M3700 6494 c-142 -14 -413 -87 -440 -119 -15 -18 -10 -45 12 -58 12
-8 39 -3 110 21 310 105 557 105 880 1 111 -36 131 -34 126 13 -3 32 -6 34
-98 65 -52 18 -140 41 -195 52 -99 20 -307 33 -395 25z"/>
<path d="M5183 6085 c-38 -16 -62 -50 -70 -97 -10 -68 49 -138 118 -138 83 0
135 56 126 136 -5 51 -27 81 -74 100 -40 17 -59 17 -100 -1z m81 -81 c31 -31
13 -74 -31 -74 -16 0 -27 9 -35 26 -11 23 -10 29 11 45 28 23 35 23 55 3z"/>
<path d="M4680 5919 c-118 -23 -230 -112 -287 -227 -37 -74 -38 -79 -38 -187
0 -99 3 -116 28 -169 60 -129 162 -212 294 -242 415 -92 689 420 383 716 -100
96 -240 137 -380 109z m146 -80 c112 -20 195 -83 251 -191 24 -46 27 -65 28
-143 0 -79 -4 -97 -28 -146 -34 -69 -100 -132 -175 -167 -71 -33 -171 -35
-252 -6 -70 25 -151 99 -186 171 -39 78 -44 186 -14 265 41 110 148 199 260
218 25 4 48 8 51 9 3 0 32 -4 65 -10z"/>
<path d="M840 5946 c-251 -70 -424 -308 -407 -561 17 -245 188 -443 433 -501
222 -52 483 68 591 272 166 312 -3 700 -344 789 -68 18 -210 18 -273 1z m100
-151 l0 -85 -90 0 c-49 0 -90 4 -90 8 0 4 9 36 21 70 22 65 19 63 114 85 45
10 45 10 45 -78z m181 63 c32 -9 38 -16 53 -63 27 -86 28 -85 -69 -85 l-85 0
0 86 0 86 33 -7 c17 -4 48 -11 68 -17z m-439 -114 c-7 -22 -15 -30 -38 -32
l-29 -4 34 36 c19 20 36 34 37 33 2 -2 0 -16 -4 -33z m638 -14 c9 -18 8 -20
-15 -20 -14 0 -25 3 -25 8 0 4 -3 18 -7 31 -5 21 -4 22 15 12 12 -6 26 -20 32
-31z m-665 -137 c-2 -21 -7 -59 -10 -85 l-6 -48 -63 0 -63 0 8 43 c4 24 15 62
24 85 17 41 18 42 66 42 l49 0 -5 -37z m285 -48 l0 -85 -110 0 -109 0 4 28 c2
15 7 53 10 85 l6 57 100 0 99 0 0 -85z m274 77 c3 -5 8 -43 12 -85 l7 -77
-107 0 -106 0 0 85 0 85 94 0 c52 0 97 -4 100 -8z m195 -35 c10 -24 22 -62 26
-85 l7 -42 -66 0 -66 0 0 39 c0 21 -3 59 -6 85 l-7 46 47 0 c46 0 47 -1 65
-43z m-765 -244 c3 -21 6 -50 6 -65 0 -27 -2 -28 -55 -28 -54 0 -54 0 -64 38
-6 20 -11 49 -11 65 0 26 1 27 59 27 l58 0 7 -37z m294 -30 l3 -63 -105 0
-104 0 -4 61 c-1 33 -1 63 1 65 3 3 50 3 105 2 l101 -3 3 -62z m292 33 c0 -18
-3 -48 -6 -65 l-6 -31 -99 0 -99 0 0 65 0 65 105 0 105 0 0 -34z m206 -5 c-13
-83 -20 -91 -79 -91 l-54 0 4 53 c7 78 5 77 74 77 l62 0 -7 -39z m-760 -226
c7 -27 11 -51 9 -53 -5 -5 -72 66 -86 91 -9 16 -7 18 27 15 36 -3 38 -5 50
-53z m262 -54 l3 -104 -44 5 c-76 9 -99 26 -118 88 -9 30 -20 70 -24 88 l-7
33 94 -3 93 -3 3 -104z m261 87 c0 -13 -10 -54 -22 -93 -22 -66 -25 -70 -62
-82 -22 -6 -52 -12 -67 -12 l-28 -1 0 105 0 105 90 0 c87 0 90 -1 89 -22z
m161 12 c0 -13 -81 -102 -88 -96 -2 3 1 28 8 55 11 49 13 51 46 51 19 0 34 -5
34 -10z"/>
<path d="M7866 5404 c-12 -92 -33 -84 207 -84 l213 0 47 -48 48 -48 -51 -92
-51 -92 60 -213 c34 -117 61 -218 61 -225 0 -9 -192 -12 -879 -12 l-879 0 -11
31 c-6 18 -11 37 -11 43 0 7 44 22 98 34 112 26 281 91 329 128 45 34 45 70 0
89 -46 19 -1003 66 -1059 52 -55 -14 -38 -76 41 -151 70 -64 147 -99 282 -126
l57 -11 32 -86 c28 -75 31 -89 20 -107 -7 -12 -99 -127 -203 -256 -105 -129
-192 -237 -194 -239 -1 -2 -47 16 -100 41 -211 98 -389 134 -623 125 -326 -12
-605 -133 -841 -367 -178 -177 -292 -390 -343 -642 -18 -89 -22 -338 -6 -435
84 -515 502 -937 1018 -1028 126 -22 336 -20 459 5 446 89 806 402 958 831
l26 75 187 -34 c134 -24 191 -38 200 -50 27 -36 50 -60 73 -75 26 -19 28 1
-23 -239 l-21 -98 -42 0 c-42 0 -42 0 -48 -42 -3 -24 -5 -43 -4 -44 1 -1 64
-5 140 -9 l137 -7 0 46 c0 46 0 46 -35 46 -19 0 -35 3 -35 6 0 12 71 279 80
300 4 12 21 25 37 28 42 11 93 54 109 92 8 18 14 56 14 84 l0 50 622 700 c581
653 623 698 634 677 6 -12 19 -45 29 -73 l18 -51 -88 -84 c-155 -149 -267
-325 -334 -526 -63 -187 -77 -441 -36 -633 95 -434 411 -789 831 -929 247 -83
566 -82 804 1 334 118 588 347 736 663 86 186 119 350 111 565 -7 189 -43 336
-121 495 -205 419 -609 683 -1071 702 -216 9 -384 -20 -557 -96 l-86 -38 -181
496 -180 496 55 93 c30 51 54 97 52 101 -2 5 -50 61 -108 124 l-105 115 -246
1 -246 1 -7 -46z m620 -1068 c17 -47 31 -26 -181 -262 -88 -98 -198 -221 -245
-274 -47 -54 -233 -262 -415 -465 -354 -394 -345 -386 -330 -268 6 50 8 53 35
53 25 0 28 4 33 38 2 20 1 41 -3 45 -4 4 -56 6 -116 5 l-109 -3 -3 -47 c-3
-46 -2 -48 23 -48 26 0 26 0 20 -57 -4 -32 -10 -61 -14 -65 -3 -4 -109 302
-235 680 -126 378 -231 693 -234 700 -3 10 174 12 878 10 l883 -3 13 -39z
m-1726 -834 c133 -404 240 -736 237 -738 -4 -4 -248 17 -352 31 l-40 6 -1 132
c-3 343 -117 634 -341 868 l-75 78 157 186 c87 103 161 183 165 178 5 -4 117
-338 250 -741z m-1270 418 c110 -14 251 -51 335 -89 61 -28 65 -32 53 -49
-141 -194 -545 -715 -557 -718 -62 -19 -111 -74 -111 -128 0 -45 31 -96 71
-118 26 -15 46 -18 89 -14 44 5 147 -11 504 -79 247 -46 451 -86 453 -88 2 -3
-10 -42 -26 -87 -144 -395 -574 -671 -1005 -647 -375 21 -706 242 -867 582
-61 129 -89 241 -96 385 -14 287 88 549 293 753 235 233 536 337 864 297z
m4135 -14 c580 -124 933 -708 770 -1272 -87 -298 -318 -549 -610 -663 -320
-125 -687 -78 -970 124 -230 164 -393 453 -414 731 -22 300 70 566 268 776
l57 61 19 -49 c80 -214 235 -428 427 -588 86 -72 103 -91 117 -132 19 -55 52
-84 107 -90 74 -10 144 54 144 132 0 37 -36 94 -70 110 -14 6 -41 19 -61 29
-53 25 -229 193 -299 286 -33 45 -80 122 -105 172 -42 87 -95 227 -95 252 0
13 128 75 205 99 28 8 77 20 110 25 33 6 71 13 85 15 47 9 245 -3 315 -18z
m-3523 -263 c122 -127 195 -266 234 -448 13 -60 38 -335 31 -341 -4 -5 -848
134 -854 140 -5 4 92 132 451 594 44 56 82 102 86 102 3 0 26 -21 52 -47z"/>
</g>
</svg>
