<?xml version="1.0" standalone="no"?>
<!DOCTYPE svg PUBLIC "-//W3C//DTD SVG 20010904//EN"
 "http://www.w3.org/TR/2001/REC-SVG-20010904/DTD/svg10.dtd">
<svg version="1.0" xmlns="http://www.w3.org/2000/svg"
 width="1080.000000pt" height="1080.000000pt" viewBox="0 0 1080.000000 1080.000000"
 preserveAspectRatio="xMidYMid meet">

<g transform="translate(0.000000,1080.000000) scale(0.100000,-0.100000)"
fill="#000000" stroke="none">
<path d="M5375 10443 c-979 -39 -1826 -522 -2352 -1341 -94 -146 -230 -422
-279 -564 l-36 -108 -90 0 c-81 0 -91 -2 -113 -25 l-25 -24 0 -1037 0 -1036
-27 7 c-16 4 -73 17 -128 30 l-100 22 -5 677 -5 678 -24 19 c-22 18 -45 19
-468 19 l-444 0 -24 -25 -25 -24 0 -661 c0 -363 -3 -660 -7 -660 -5 0 -60 -9
-123 -20 -63 -11 -118 -20 -122 -20 -5 0 -8 459 -8 1020 l0 1019 -22 21 c-25
23 -76 26 -104 6 -19 -14 -19 -39 -24 -1057 l-5 -1043 -120 -37 c-184 -56
-338 -117 -358 -140 -16 -20 -17 -129 -17 -1983 l0 -1963 23 -21 c33 -31 58
-28 187 24 308 124 658 191 1045 201 236 6 383 -5 610 -43 176 -30 417 -97
589 -165 54 -21 106 -39 116 -39 10 0 69 20 132 44 319 125 657 192 1023 203
454 13 777 -44 1265 -223 88 -32 122 -29 145 16 13 25 15 173 15 1208 l0 1180
98 6 c53 4 130 9 170 12 l72 6 0 -70 c0 -81 17 -107 78 -118 19 -4 933 -4
2031 0 l1996 7 23 25 22 25 0 1075 0 1075 -25 24 -24 25 -826 0 c-454 0 -825
1 -825 3 0 1 13 54 29 117 340 1346 -304 2745 -1544 3355 -278 137 -540 221
-828 264 -169 26 -396 40 -542 34z m467 -184 c669 -96 1247 -410 1690 -917
l90 -103 -17 -38 c-33 -75 -103 -126 -187 -137 -50 -7 -98 4 -184 40 -34 14
-94 30 -133 36 -171 24 -337 -64 -416 -220 -15 -30 -36 -96 -46 -148 -36 -181
-127 -310 -262 -377 -127 -62 -228 -65 -336 -11 -101 52 -137 97 -181 229 -38
118 -111 176 -220 177 -30 0 -104 -12 -163 -27 l-108 -28 -35 37 -34 38 0 113
c0 74 -6 132 -16 168 -51 175 -212 287 -371 258 -123 -23 -209 -96 -273 -234
-62 -132 -118 -170 -250 -170 -170 0 -267 78 -317 256 -14 51 -18 102 -18 254
0 185 7 249 42 408 l15 68 121 61 c501 250 1069 345 1609 267z m-1925 -486
c-34 -175 -34 -473 2 -606 54 -203 167 -323 352 -372 205 -55 434 49 500 226
43 113 139 188 220 172 35 -7 104 -65 126 -107 12 -22 18 -71 23 -172 6 -117
11 -149 29 -187 58 -121 181 -166 331 -122 30 9 79 19 108 22 66 7 86 -9 109
-86 32 -114 89 -191 195 -262 86 -59 150 -81 253 -86 111 -7 177 6 270 53 187
91 311 261 357 482 22 112 36 140 88 191 75 72 184 83 316 30 209 -84 410 -37
517 120 9 14 18 23 21 20 20 -21 147 -242 196 -339 56 -112 59 -122 38 -116
-236 67 -423 -16 -482 -214 -11 -37 -16 -95 -16 -188 0 -74 -5 -152 -12 -174
-15 -51 -82 -126 -133 -149 -50 -23 -145 -24 -200 -3 -307 120 -603 -23 -681
-328 -30 -115 0 -317 54 -369 29 -29 83 -28 112 1 25 25 25 61 0 128 -27 72
-27 173 2 249 29 80 113 162 187 186 82 26 163 22 272 -14 82 -27 105 -31 174
-27 176 9 312 117 366 289 15 49 19 87 17 198 -2 127 -1 140 22 186 36 72 89
98 185 92 77 -6 138 -28 201 -75 45 -33 62 -72 103 -237 113 -457 107 -942
-17 -1405 l-28 -105 -1115 -5 c-612 -3 -1122 -9 -1132 -14 -10 -4 -22 -17 -27
-27 -6 -11 -10 -363 -10 -942 l0 -924 -37 -6 c-21 -3 -98 -9 -170 -13 l-133
-7 0 679 c0 520 -3 685 -13 704 -7 14 -32 35 -57 47 -77 37 -368 130 -515 163
-77 18 -146 34 -152 36 -10 3 -13 94 -13 413 0 284 -3 418 -11 435 -7 13 -24
30 -38 36 -18 7 -163 10 -465 8 l-438 -3 -19 -24 c-18 -22 -19 -44 -19 -432 0
-225 -3 -409 -7 -409 -5 0 -60 -9 -123 -20 -63 -11 -118 -20 -122 -20 -5 0 -8
457 -8 1015 l0 1016 -25 24 -24 25 -271 0 c-153 0 -270 4 -270 9 0 40 199 463
249 529 16 22 20 23 74 13 165 -30 304 -170 337 -338 5 -29 15 -77 20 -107 29
-146 127 -274 262 -341 69 -33 88 -38 171 -43 133 -7 238 23 332 93 71 53 158
88 232 93 64 4 77 2 116 -21 47 -28 83 -74 119 -152 20 -44 23 -65 23 -185 -1
-123 -3 -141 -28 -204 -32 -81 -34 -115 -8 -147 25 -32 86 -32 112 -1 47 59
89 225 89 357 0 166 -52 306 -150 405 -70 71 -134 101 -226 108 -115 7 -246
-34 -357 -114 -92 -66 -176 -89 -267 -72 -156 29 -245 129 -275 309 -25 156
-71 254 -164 352 -66 69 -142 118 -233 148 l-67 22 55 71 c102 131 232 273
341 369 111 99 261 216 277 217 5 0 6 -12 3 -27z m-607 -3308 l0 -1805 -335 0
-335 0 0 1805 0 1805 335 0 335 0 0 -1805z m-1250 -335 l0 -1470 -335 0 -335
0 0 1470 0 1470 335 0 335 0 0 -1470z m2500 -250 l0 -1220 -335 0 -335 0 0
1220 0 1220 335 0 335 0 0 -1220z m5240 -333 l0 -964 -232 -6 c-128 -4 -990
-7 -1915 -7 l-1683 0 0 970 0 970 1915 0 1915 0 0 -963z m-8570 -102 l0 -785
-130 0 -130 0 2 762 3 762 30 8 c39 10 184 36 208 37 16 1 17 -43 17 -784z
m2500 0 l0 -785 -130 0 -130 0 0 764 0 764 98 17 c53 9 102 18 107 20 6 2 20
4 33 4 l22 1 0 -785z m-1367 728 l117 -26 0 -744 0 -743 -130 0 -130 0 0 770
c0 609 3 770 13 770 6 0 65 -12 130 -27z m2487 3 c148 -34 335 -90 403 -120
l57 -25 0 -1840 c0 -1131 -4 -1841 -9 -1841 -5 0 -47 14 -93 31 -46 17 -162
50 -258 75 -608 155 -1259 132 -1849 -65 -66 -23 -123 -41 -126 -41 -3 0 -5
484 -5 1075 l0 1075 1015 0 1016 0 24 25 c26 25 32 63 15 95 -16 30 -66 40
-196 40 l-124 0 0 770 c0 609 3 770 13 770 6 0 59 -11 117 -24z m-4030 -836
c0 -787 0 -800 20 -820 20 -20 33 -20 995 -20 l975 0 0 -865 c0 -476 -3 -865
-7 -865 -3 0 -69 20 -144 45 -680 222 -1417 217 -2086 -15 -48 -17 -90 -30
-95 -30 -4 0 -8 733 -8 1630 l0 1629 21 12 c35 18 282 98 307 98 l22 1 0 -800z
m1200 -2544 c249 -34 412 -72 638 -148 l152 -52 0 -123 c0 -68 -2 -123 -5
-123 -3 0 -51 16 -105 35 -55 19 -173 52 -262 75 -618 153 -1272 125 -1865
-80 -48 -17 -90 -30 -95 -30 -5 0 -7 55 -6 122 l3 122 75 28 c224 86 539 156
841 188 119 12 493 4 629 -14z"/>
<path d="M7567 6330 c-1159 -5 -1179 -5 -1193 -25 -8 -11 -17 -38 -21 -60 -8
-53 -56 -101 -109 -110 -60 -10 -83 -22 -94 -51 -6 -15 -10 -235 -10 -560 0
-587 0 -588 58 -599 75 -16 103 -28 126 -56 14 -17 26 -39 26 -50 0 -11 11
-31 25 -44 l24 -25 1481 0 1482 0 29 29 c16 16 29 36 29 45 0 30 60 85 98 91
60 10 89 25 101 51 14 32 16 1080 1 1118 -10 28 -34 41 -93 51 -56 9 -97 50
-108 110 -5 27 -18 59 -29 70 -24 24 6 24 -1823 15z m1718 -191 c24 -53 89
-117 143 -140 l42 -18 0 -456 0 -455 -37 -15 c-53 -22 -100 -61 -130 -106
l-26 -39 -1398 0 c-1371 0 -1398 0 -1404 19 -10 31 -81 97 -130 120 l-45 21 0
455 0 454 43 19 c60 26 112 75 137 127 l22 45 196 3 c108 1 731 3 1383 5
l1186 2 18 -41z"/>
<path d="M7763 6015 c-80 -22 -145 -59 -211 -119 -246 -228 -182 -641 122
-791 90 -45 171 -58 264 -45 212 30 364 164 417 367 66 253 -102 530 -355 587
-84 19 -167 19 -237 1z m262 -178 c60 -30 124 -95 156 -157 20 -37 24 -60 24
-135 0 -78 -4 -97 -28 -147 -32 -64 -101 -131 -164 -158 -168 -73 -368 14
-434 189 -17 44 -20 71 -17 131 8 133 79 233 204 286 79 33 185 30 259 -9z"/>
<path d="M6470 4231 c-330 -48 -598 -248 -740 -554 -167 -359 -89 -796 192
-1076 122 -123 259 -202 435 -253 68 -20 100 -23 243 -22 149 1 174 3 253 27
136 42 269 114 357 193 l36 33 60 -91 c186 -285 526 -451 853 -419 58 6 134
18 170 27 80 20 236 91 302 139 27 19 51 35 54 35 2 0 14 -19 26 -42 68 -133
190 -271 315 -354 104 -69 170 -99 291 -131 131 -34 336 -36 455 -5 329 88
568 304 676 612 45 129 55 207 49 366 -3 100 -11 160 -27 213 -94 326 -336
572 -657 667 -107 31 -314 44 -415 25 -132 -25 -268 -81 -385 -158 -29 -20
-55 -34 -56 -32 -2 2 -20 33 -40 69 -47 86 -75 122 -155 204 -152 155 -342
248 -567 276 -96 12 -259 -1 -360 -30 -97 -27 -236 -98 -323 -165 -41 -31 -75
-55 -76 -53 -2 2 -20 30 -41 63 -165 263 -450 427 -760 439 -60 3 -135 1 -165
-3z m231 -161 c165 -24 301 -89 422 -200 88 -81 139 -151 188 -255 203 -433
-21 -953 -476 -1102 -108 -35 -310 -44 -418 -18 -283 68 -513 292 -589 574
-28 103 -30 307 -4 401 111 403 483 657 877 600z m1588 -271 c286 -72 500
-294 576 -596 25 -97 23 -274 -4 -377 -74 -281 -289 -500 -568 -577 -107 -30
-284 -30 -397 0 -199 53 -389 197 -486 368 -46 82 -46 89 5 178 118 207 156
445 110 679 l-18 90 61 57 c189 178 458 244 721 178z m1461 -350 c280 -71 495
-289 572 -579 28 -107 28 -286 -1 -395 -76 -284 -285 -497 -568 -577 -112 -32
-297 -31 -403 1 -227 69 -412 222 -506 419 l-34 72 55 79 c66 94 113 195 146
311 19 71 23 109 24 230 0 80 -4 170 -8 201 l-9 56 60 46 c192 149 431 197
672 136z"/>
<path d="M6563 4005 c-34 -14 -43 -31 -43 -81 0 -37 2 -35 -94 -69 -72 -26
-143 -89 -185 -165 -33 -60 -36 -71 -36 -150 0 -77 3 -90 31 -140 35 -62 105
-121 174 -147 25 -9 60 -22 78 -29 l32 -13 0 -157 0 -156 -32 6 c-59 12 -118
47 -178 107 -69 68 -104 76 -145 34 -45 -44 -28 -92 63 -177 62 -57 143 -101
220 -120 26 -6 53 -12 60 -14 7 -2 12 -22 12 -52 0 -60 24 -86 77 -86 49 0 73
31 73 94 l0 48 65 31 c187 87 283 305 193 437 -32 46 -116 99 -193 119 l-65
18 0 183 c0 149 3 184 14 184 20 0 87 -48 121 -86 39 -44 81 -53 118 -24 21
17 27 30 27 60 0 69 -115 169 -242 210 -36 11 -38 14 -38 51 0 22 -4 49 -10
59 -15 28 -61 40 -97 25z m-43 -456 c0 -175 1 -172 -63 -145 -18 7 -47 30 -65
50 -43 49 -45 112 -5 173 25 40 108 97 125 87 4 -3 8 -77 8 -165z m273 -431
c19 -26 20 -28 3 -72 -16 -42 -93 -126 -116 -126 -11 0 -15 242 -4 253 12 12
97 -28 117 -55z"/>
<path d="M8081 3559 c-182 -34 -313 -246 -268 -436 l14 -63 -69 0 c-60 0 -72
-3 -93 -25 -27 -26 -32 -70 -12 -96 23 -30 56 -39 142 -39 l87 0 -7 -32 c-14
-65 -46 -136 -85 -189 -22 -30 -47 -69 -57 -87 -16 -30 -16 -36 -2 -60 28 -51
39 -52 377 -50 l314 3 19 24 c26 32 25 85 -3 111 -21 19 -34 20 -251 20 -180
0 -228 3 -224 13 40 91 58 142 68 190 l12 57 99 0 c97 0 100 1 129 29 32 32
35 47 18 84 -17 38 -51 47 -173 47 l-113 0 -19 42 c-38 86 -20 183 49 256 71
74 183 57 238 -37 37 -61 60 -81 94 -81 73 0 97 81 47 161 -75 118 -207 181
-331 158z"/>
<path d="M9586 3289 c-165 -41 -339 -238 -387 -439 -17 -69 -16 -198 0 -270
48 -207 227 -404 401 -441 97 -21 211 15 288 91 38 39 44 88 12 120 -35 35
-77 30 -136 -15 -77 -59 -143 -56 -236 12 -73 53 -151 173 -172 266 l-6 27
183 0 c173 0 185 1 202 20 26 29 25 85 -3 113 -21 21 -32 22 -203 25 -207 4
-193 -8 -135 117 41 88 111 166 178 199 74 37 113 34 186 -14 67 -45 107 -51
140 -20 36 34 30 85 -15 128 -77 72 -199 106 -297 81z"/>
</g>
</svg>
