<?xml version="1.0" standalone="no"?>
<!DOCTYPE svg PUBLIC "-//W3C//DTD SVG 20010904//EN"
 "http://www.w3.org/TR/2001/REC-SVG-20010904/DTD/svg10.dtd">
<svg version="1.0" xmlns="http://www.w3.org/2000/svg"
 width="1080.000000pt" height="1080.000000pt" viewBox="0 0 1080.000000 1080.000000"
 preserveAspectRatio="xMidYMid meet">

<g transform="translate(0.000000,1080.000000) scale(0.100000,-0.100000)"
fill="#000000" stroke="none">
<path d="M5492 10653 c-146 -632 -211 -1114 -199 -1473 10 -271 45 -401 156
-575 62 -98 228 -258 328 -318 133 -80 279 -130 435 -152 39 -5 47 -3 52 12
14 49 28 292 28 493 -1 392 -46 693 -161 1074 -16 54 -26 95 -21 90 20 -20
179 -346 219 -449 119 -305 166 -495 180 -735 32 -532 19 -919 -45 -1420 -64
-496 -203 -1076 -364 -1523 -29 -78 -34 -86 -49 -75 -9 7 -52 43 -96 79 -44
36 -118 94 -165 129 -47 34 -86 63 -88 65 -1 1 6 38 17 81 56 218 53 438 -9
664 -28 100 -126 298 -192 385 -154 205 -394 376 -608 434 -255 70 -682 33
-1235 -105 -287 -72 -782 -225 -1017 -314 l-58 -21 25 -49 c36 -72 207 -367
296 -512 393 -639 750 -1068 1042 -1251 241 -152 632 -190 934 -91 149 49 368
168 427 232 18 20 18 22 -5 54 -58 82 -269 315 -395 438 -310 301 -622 530
-968 711 -75 39 -136 72 -136 74 0 7 185 -51 343 -106 377 -133 701 -310 1041
-567 213 -161 456 -385 626 -576 l100 -113 -71 -154 c-77 -169 -177 -363 -276
-536 -39 -68 -68 -133 -75 -167 -11 -51 -10 -59 12 -107 45 -96 145 -159 252
-159 100 0 152 43 217 176 98 203 238 556 330 834 51 157 141 464 141 485 0
19 289 186 475 274 503 239 1006 378 1540 425 287 25 420 28 519 12 48 -8 91
-17 94 -20 3 -3 -33 -6 -79 -6 -273 0 -635 -51 -972 -136 -226 -57 -557 -178
-789 -289 l-77 -37 36 -71 c77 -154 218 -326 347 -426 177 -137 389 -223 611
-250 389 -47 1049 264 1958 922 l178 128 -50 57 c-67 77 -400 404 -541 533
-508 462 -901 721 -1205 795 -92 22 -289 22 -409 0 -270 -51 -499 -175 -682
-369 -97 -102 -148 -177 -214 -312 -81 -167 -109 -282 -119 -485 l-6 -124
-142 -43 c-77 -23 -189 -61 -248 -83 -59 -22 -111 -40 -115 -40 -4 0 -2 32 6
72 21 112 62 398 79 553 49 461 55 897 19 1401 l-7 92 39 12 c48 15 148 69
229 124 161 108 307 295 379 488 50 133 61 201 61 378 -1 173 -14 251 -66 382
-108 274 -518 594 -1244 969 -206 106 -509 249 -529 249 -8 0 -24 -52 -44
-137z"/>
<path d="M3689 4245 c-37 -8 -415 -135 -840 -281 -922 -317 -1001 -344 -1009
-344 -4 0 -31 71 -61 157 -29 86 -64 170 -77 185 -29 35 -72 58 -106 58 -14 0
-123 -36 -243 -81 -295 -109 -547 -199 -668 -240 -110 -37 -147 -64 -163 -122
-22 -78 33 -168 112 -183 43 -8 113 14 546 172 176 64 322 115 324 113 5 -6
926 -2660 926 -2669 0 -4 -196 -81 -435 -170 -389 -145 -438 -166 -465 -196
-78 -89 -13 -234 104 -234 45 0 1049 370 1080 398 52 48 59 116 20 223 -14 39
-22 75 -17 80 4 4 78 34 163 67 l154 58 1001 -287 c550 -158 1144 -329 1320
-380 l320 -93 140 0 c150 0 230 15 347 67 45 21 775 455 3202 1907 499 299
554 339 642 471 98 148 140 302 131 479 -17 340 -252 626 -582 711 -103 26
-270 28 -370 3 -103 -25 -165 -56 -915 -458 -928 -499 -969 -521 -1017 -545
l-42 -21 -43 82 c-59 112 -157 210 -267 267 -45 23 -97 47 -114 52 -18 5 -414
113 -882 240 -467 127 -1091 296 -1385 376 -518 140 -539 145 -650 149 -79 3
-136 -1 -181 -11z m847 -444 c324 -88 946 -257 1383 -376 518 -140 810 -224
842 -242 65 -35 134 -110 167 -181 24 -50 27 -69 27 -157 0 -87 -3 -107 -27
-157 -70 -149 -215 -237 -373 -225 -44 3 -372 83 -875 212 -509 131 -823 207
-854 207 -108 0 -173 -111 -122 -209 32 -62 -26 -45 1136 -340 522 -132 629
-156 710 -160 188 -9 348 50 487 181 110 104 177 223 206 366 l12 61 968 519
c605 323 988 523 1020 531 80 20 202 15 271 -10 87 -31 134 -62 197 -128 185
-194 185 -489 0 -674 -46 -46 -237 -164 -1076 -666 -2080 -1244 -2588 -1545
-2643 -1565 -44 -16 -83 -21 -167 -22 l-110 -1 -625 182 c-1407 409 -2025 584
-2061 585 -25 0 -104 -25 -225 -72 -102 -40 -189 -68 -193 -64 -7 8 -666 1901
-673 1932 -2 9 53 33 172 74 96 33 494 170 884 304 389 134 729 248 755 253
109 23 168 11 787 -158z"/>
</g>
</svg>
