<?xml version="1.0" standalone="no"?>
<!DOCTYPE svg PUBLIC "-//W3C//DTD SVG 20010904//EN"
 "http://www.w3.org/TR/2001/REC-SVG-20010904/DTD/svg10.dtd">
<svg version="1.0" xmlns="http://www.w3.org/2000/svg"
 width="1080.000000pt" height="1080.000000pt" viewBox="0 0 1080.000000 1080.000000"
 preserveAspectRatio="xMidYMid meet">

<g transform="translate(0.000000,1080.000000) scale(0.100000,-0.100000)"
fill="#000000" stroke="none">
<path d="M5069 10481 c-140 -94 -1282 -870 -2539 -1724 -1644 -1117 -2291
-1562 -2307 -1586 l-23 -34 0 -509 c0 -450 2 -514 16 -544 30 -64 113 -101
181 -82 21 6 100 53 176 104 76 52 142 94 148 94 5 0 9 -843 9 -2204 l0 -2204
-129 -4 c-141 -3 -159 -10 -205 -72 -21 -27 -21 -38 -21 -491 0 -453 0 -464
21 -491 11 -15 33 -37 48 -48 l27 -21 4892 -2 4892 -3 40 23 c26 14 48 37 63
67 l23 45 -3 440 -3 440 -24 38 c-38 62 -81 77 -216 77 l-115 0 0 2210 0 2209
154 -104 c84 -57 166 -105 182 -107 84 -10 163 38 185 112 7 23 9 210 7 530
-3 473 -4 496 -23 528 -15 24 -658 466 -2555 1754 l-2535 1722 -56 4 -56 4
-254 -171z m2849 -1920 l2302 -1563 0 -259 c0 -143 -2 -259 -6 -259 -3 0
-1072 733 -2377 1628 -1305 895 -2378 1632 -2386 1636 -26 16 -81 24 -114 16
-20 -4 -1006 -675 -2411 -1639 -1308 -898 -2384 -1635 -2392 -1638 -12 -4 -14
36 -14 249 0 251 0 255 23 275 12 11 983 672 2157 1469 1174 796 2256 1530
2404 1631 l269 182 121 -82 c66 -46 1157 -786 2424 -1646z m-380 -646 l2152
-1477 0 -2324 0 -2324 -130 0 -130 0 0 1029 c0 1109 0 1097 -53 1243 -45 124
-105 216 -207 318 -173 172 -382 260 -622 260 -43 0 -78 3 -77 8 0 4 22 24 50
45 116 88 253 308 301 482 32 119 32 364 0 485 -96 352 -358 609 -717 702
-105 27 -325 29 -430 4 -430 -103 -722 -440 -761 -876 -7 -81 8 -229 32 -325
44 -171 171 -368 314 -487 l45 -38 -80 0 c-104 0 -191 -15 -293 -49 -76 -25
-84 -26 -95 -11 -26 36 -161 140 -227 174 -163 86 -289 117 -470 117 -176 0
-297 -29 -456 -109 -225 -114 -420 -365 -486 -627 -31 -123 -31 -342 0 -457
57 -210 184 -414 319 -510 l45 -33 -97 -12 c-254 -32 -455 -153 -590 -356 -36
-54 -40 -57 -78 -57 l-40 0 50 53 c90 95 153 205 195 337 20 66 23 95 23 235
0 154 -2 163 -33 255 -47 135 -101 221 -201 320 -121 119 -259 194 -408 223
l-63 12 -37 63 c-86 146 -211 262 -369 341 -111 56 -217 82 -356 90 l-118 6
55 42 c125 97 262 319 307 498 32 126 32 332 0 458 -91 364 -374 643 -735 724
-104 23 -310 22 -412 -1 -183 -42 -328 -119 -458 -245 -140 -135 -228 -283
-279 -470 -31 -112 -31 -341 0 -465 49 -196 173 -396 310 -499 l56 -42 -120
-6 c-130 -7 -203 -23 -312 -68 -224 -93 -414 -294 -492 -523 -16 -46 -34 -112
-39 -148 -7 -42 -11 -427 -11 -1087 l0 -1023 -130 0 -130 0 0 2318 c0 2196 1
2320 18 2334 9 9 586 406 1282 884 696 478 1659 1139 2140 1471 481 331 880
600 885 598 6 -1 979 -668 2163 -1480z m-4488 -1884 c208 -66 376 -244 430
-457 87 -338 -123 -687 -466 -774 -238 -61 -508 32 -657 225 -332 433 -11
1054 533 1031 57 -3 121 -13 160 -25z m4965 14 c153 -32 311 -141 398 -273 77
-117 106 -215 107 -352 0 -166 -56 -310 -167 -430 -80 -86 -164 -142 -268
-177 -70 -24 -95 -28 -200 -28 -96 0 -134 4 -190 22 -196 62 -365 231 -423
423 -141 464 269 914 743 815z m-1762 -1510 c315 -56 541 -341 524 -660 -18
-343 -299 -605 -647 -605 -171 0 -309 59 -441 190 -132 130 -197 300 -185 485
16 260 175 472 423 562 116 42 206 50 326 28z m-2611 -236 c78 -16 188 -72
247 -125 28 -25 51 -49 51 -53 0 -4 -41 -27 -91 -50 -215 -102 -377 -296 -441
-530 -28 -100 -30 -303 -5 -406 27 -107 95 -240 171 -333 37 -46 66 -85 64
-86 -1 -2 -32 -8 -68 -15 -36 -7 -106 -32 -155 -56 -148 -73 -246 -169 -316
-310 -56 -112 -69 -169 -76 -332 l-6 -143 -689 0 -688 0 0 978 c0 944 1 982
20 1056 26 102 69 176 149 257 71 71 161 122 254 145 69 17 1499 20 1579 3z
m5041 -4 c157 -41 287 -146 361 -292 58 -115 56 -81 56 -1155 l0 -988 -774 0
-773 0 -6 288 c-6 331 -15 383 -92 537 -122 244 -374 415 -650 440 l-78 8 71
66 c247 230 357 562 293 888 -11 54 -27 118 -35 142 -9 24 -16 47 -16 52 0 22
135 27 835 28 635 1 760 -1 808 -14z m-4364 -480 c230 -55 384 -249 383 -484
0 -250 -176 -454 -423 -491 -255 -37 -506 137 -558 388 -74 354 248 669 598
587z m2524 -1030 c194 -50 336 -204 367 -395 5 -36 10 -170 10 -297 l0 -233
-915 0 -915 0 0 123 c-1 235 -57 380 -208 539 l-45 47 28 41 c32 46 110 112
169 142 86 44 126 46 806 47 542 1 655 -1 703 -14z m-1993 -431 c76 -36 150
-110 182 -181 18 -39 22 -72 26 -180 l4 -133 -856 0 -856 0 0 98 c0 241 98
377 305 425 11 3 270 4 575 4 l555 -2 65 -31z m5200 -1129 l0 -235 -4675 0
-4675 0 0 235 0 235 4675 0 4675 0 0 -235z"/>
<path d="M4760 8106 c-346 -78 -573 -423 -509 -772 14 -76 53 -174 97 -244 47
-76 903 -934 958 -960 80 -39 132 -22 224 76 35 38 243 247 461 464 392 390
398 396 438 480 55 115 72 185 72 305 0 120 -17 191 -73 305 -79 164 -255 302
-438 345 -82 19 -215 19 -303 0 -82 -17 -193 -69 -265 -125 l-53 -41 -40 35
c-59 50 -167 104 -255 126 -89 23 -228 25 -314 6z m295 -346 c28 -14 92 -65
146 -116 85 -81 101 -93 142 -99 72 -11 107 7 215 109 123 116 174 140 297
134 59 -2 93 -9 130 -28 168 -82 236 -285 153 -460 -15 -32 -124 -148 -392
-418 l-371 -372 -373 372 c-431 431 -427 426 -427 573 0 104 19 156 80 224 75
83 147 112 265 108 65 -2 97 -9 135 -27z"/>
</g>
</svg>
