<?xml version="1.0" standalone="no"?>
<!DOCTYPE svg PUBLIC "-//W3C//DTD SVG 20010904//EN"
 "http://www.w3.org/TR/2001/REC-SVG-20010904/DTD/svg10.dtd">
<svg version="1.0" xmlns="http://www.w3.org/2000/svg"
 width="1080.000000pt" height="1080.000000pt" viewBox="0 0 1080.000000 1080.000000"
 preserveAspectRatio="xMidYMid meet">

<g transform="translate(0.000000,1080.000000) scale(0.100000,-0.100000)"
fill="#000000" stroke="none">
<path d="M2134 10685 c-33 -14 -161 -145 -259 -267 -144 -179 -287 -420 -379
-642 -52 -123 -106 -286 -106 -317 0 -31 53 -79 88 -79 52 0 78 32 113 138
119 360 283 636 553 935 95 106 106 121 106 156 0 62 -58 101 -116 76z"/>
<path d="M3708 10494 c-281 -43 -543 -149 -769 -310 -104 -74 -309 -275 -381
-374 -202 -277 -313 -568 -349 -909 -15 -144 -6 -519 16 -691 100 -784 441
-1462 1060 -2110 445 -466 1018 -896 1735 -1303 175 -99 229 -118 357 -124
147 -8 215 16 464 158 1618 929 2512 1995 2718 3241 34 207 44 358 39 634 -4
215 -9 278 -27 368 -128 631 -578 1149 -1168 1346 -215 71 -298 84 -553 84
-260 1 -361 -14 -565 -85 -304 -104 -556 -275 -766 -518 -35 -40 -75 -77 -88
-82 -44 -17 -83 6 -159 95 -257 304 -645 517 -1058 580 -124 20 -384 20 -506
0z m2037 -1653 c73 -34 146 -111 169 -178 13 -37 16 -90 16 -249 l0 -203 218
-3 c206 -3 219 -4 264 -27 57 -29 119 -91 150 -151 22 -44 23 -54 26 -331 3
-274 2 -288 -19 -344 -28 -74 -93 -145 -162 -176 -48 -22 -66 -24 -264 -27
l-213 -3 0 -207 0 -207 -29 -60 c-46 -96 -122 -155 -226 -175 -39 -8 -148 -10
-315 -8 l-255 3 -53 28 c-67 35 -122 90 -153 153 -23 46 -24 60 -27 261 l-4
212 -211 3 c-192 3 -216 5 -258 24 -63 29 -125 94 -158 163 -26 55 -26 60 -29
305 -5 339 10 405 110 490 77 66 122 76 348 76 l198 0 4 213 c4 247 12 277 99
359 88 82 111 87 434 87 l280 1 60 -29z"/>
<path d="M5118 8664 c-54 -29 -58 -51 -58 -309 0 -240 -6 -289 -41 -311 -8 -5
-131 -11 -274 -14 -282 -5 -291 -7 -325 -63 -18 -29 -20 -52 -20 -287 0 -235
2 -257 19 -284 35 -53 46 -55 304 -56 247 0 284 -5 317 -45 12 -15 16 -67 20
-279 4 -186 9 -267 18 -283 28 -49 52 -53 330 -53 359 0 342 -18 342 350 0
266 3 279 62 299 19 7 125 11 267 11 254 0 267 3 305 53 20 27 21 40 21 286 0
365 20 345 -345 349 l-255 3 -27 26 -28 27 0 243 c0 265 -4 291 -55 331 -27
21 -36 22 -289 22 -211 -1 -266 -4 -288 -16z"/>
<path d="M1344 8856 c-83 -37 -55 -166 35 -166 79 1 119 87 69 144 -29 32 -64
39 -104 22z"/>
<path d="M458 6841 c-31 -10 -72 -28 -92 -40 -55 -34 -123 -117 -145 -177 -21
-54 -21 -66 -21 -1553 l0 -1499 23 -80 c13 -44 39 -107 58 -139 25 -43 205
-230 696 -723 364 -366 667 -678 672 -693 7 -17 11 -132 11 -293 l0 -264 1096
0 1095 0 -3 498 c-5 551 -4 545 -73 683 -47 93 -227 279 -1342 1390 -979 975
-907 913 -1073 913 -83 0 -102 -3 -151 -27 -70 -34 -151 -118 -187 -194 -22
-48 -27 -72 -27 -138 0 -70 4 -89 33 -149 29 -63 66 -103 442 -481 371 -372
410 -415 410 -444 0 -45 -16 -70 -56 -87 -31 -13 -39 -13 -67 1 -41 19 -812
792 -857 858 -17 27 -44 76 -58 110 -23 55 -26 75 -27 182 0 135 12 183 71
280 l35 58 -3 871 -3 871 -32 66 c-83 168 -264 254 -425 200z"/>
<path d="M10158 6845 c-108 -30 -188 -101 -242 -214 l-31 -66 -3 -863 -3 -863
35 -57 c100 -164 109 -346 25 -520 -30 -60 -75 -109 -448 -486 -229 -230 -429
-424 -444 -431 -40 -17 -73 -8 -102 27 -27 32 -31 57 -14 91 6 12 193 204 414
427 467 470 460 460 460 610 0 84 -3 102 -28 152 -69 141 -217 228 -364 215
-138 -13 -63 55 -1236 -1116 -695 -693 -1083 -1089 -1113 -1131 -24 -36 -57
-99 -72 -140 l-27 -75 -3 -512 -3 -513 1095 0 1096 0 0 276 c0 182 4 283 11
297 6 12 302 312 658 667 422 420 661 666 686 705 21 32 53 98 69 145 l31 85
3 1474 c1 973 -1 1493 -8 1530 -19 101 -77 187 -164 239 -85 52 -195 71 -278
47z"/>
<path d="M8108 5569 c-32 -12 -58 -64 -51 -102 12 -63 102 -89 148 -42 67 66
-8 177 -97 144z"/>
<path d="M7545 5118 c-10 -6 -78 -59 -150 -117 -208 -168 -392 -301 -665 -482
-140 -92 -272 -180 -293 -194 -63 -42 -71 -105 -20 -145 45 -36 79 -26 214 58
329 207 584 388 885 628 173 139 194 175 135 235 -31 31 -71 37 -106 17z"/>
<path d="M1360 1177 c-13 -7 -35 -28 -47 -46 l-23 -34 0 -444 c0 -481 1 -489
55 -531 l28 -22 1374 0 c1509 0 1415 -4 1448 60 13 25 15 97 15 485 0 507 0
503 -65 531 -48 20 -2746 21 -2785 1z"/>
<path d="M6660 1177 c-13 -7 -35 -28 -47 -46 l-23 -34 0 -444 c0 -481 1 -489
55 -531 l28 -22 1374 0 c1509 0 1415 -4 1448 60 13 25 15 97 15 485 0 507 0
503 -65 531 -48 20 -2746 21 -2785 1z"/>
</g>
</svg>
