<?xml version="1.0" standalone="no"?>
<!DOCTYPE svg PUBLIC "-//W3C//DTD SVG 20010904//EN"
 "http://www.w3.org/TR/2001/REC-SVG-20010904/DTD/svg10.dtd">
<svg version="1.0" xmlns="http://www.w3.org/2000/svg"
 width="1080.000000pt" height="1080.000000pt" viewBox="0 0 1080.000000 1080.000000"
 preserveAspectRatio="xMidYMid meet">

<g transform="translate(0.000000,1080.000000) scale(0.100000,-0.100000)"
fill="#000000" stroke="none">
<path d="M583 10525 c-29 -8 -72 -24 -94 -36 -51 -26 -134 -101 -165 -151 -57
-90 -77 -215 -53 -328 6 -29 80 -190 165 -361 l154 -310 0 -3213 0 -3213 -62
-12 c-35 -7 -82 -23 -105 -37 -57 -33 -119 -106 -143 -170 -20 -54 -20 -73
-20 -1244 l0 -1190 5140 0 5140 0 -2 1208 -3 1207 -27 50 c-50 96 -147 165
-250 180 l-48 6 0 3214 0 3214 162 325 162 324 4 87 c12 223 -111 395 -323
451 -41 11 -321 14 -1490 14 -1574 0 -1497 3 -1607 -57 -73 -40 -143 -114
-179 -191 -41 -85 -51 -205 -24 -297 9 -32 84 -192 166 -356 l149 -299 0 -395
0 -395 -1827 2 -1828 3 -3 387 -2 388 141 282 c78 156 153 312 166 348 30 78
34 189 10 271 -36 124 -140 235 -263 282 l-59 22 -1465 2 c-1239 2 -1473 0
-1517 -12z m2960 -343 c53 -55 51 -62 -97 -360 l-136 -272 -1227 0 -1228 0
-133 265 c-147 295 -153 316 -103 366 l29 29 1434 0 1434 0 27 -28z m6641 -1
c50 -53 44 -76 -103 -368 l-131 -263 -1228 0 -1227 0 -133 265 c-147 295 -153
316 -103 366 l29 29 1434 0 1434 0 28 -29z m-6936 -2623 l2 -1658 -1165 0
-1165 0 0 1660 0 1660 1163 -2 1162 -3 3 -1657z m6632 2 l0 -1660 -1160 0
-1160 0 0 1660 0 1660 1160 0 1160 0 0 -1660z m-2650 495 l0 -165 -1830 0
-1830 0 0 165 0 165 1830 0 1830 0 0 -165z m-3320 -745 l0 -250 -170 0 -170 0
0 243 c0 134 3 247 7 250 3 4 80 7 170 7 l163 0 0 -250z m660 0 l0 -250 -165
0 -165 0 0 250 0 250 165 0 165 0 0 -250z m668 -2 l2 -248 -170 0 -170 0 0
243 c0 134 3 247 7 251 4 3 79 5 167 4 l161 -3 3 -247z m662 2 l0 -250 -165 0
-165 0 0 250 0 250 165 0 165 0 0 -250z m668 -2 l2 -248 -170 0 -170 0 0 250
0 250 168 -2 167 -3 3 -247z m662 2 l0 -250 -170 0 -170 0 0 243 c0 134 3 247
7 250 3 4 80 7 170 7 l163 0 0 -250z m-2120 -587 c-1 -10 -1509 -1097 -1527
-1101 -11 -3 -13 100 -13 546 0 302 3 552 7 555 9 10 1533 9 1533 0z m2120
-554 l0 -561 -32 24 c-18 13 -357 258 -753 543 -396 285 -729 526 -740 536
-19 19 0 19 753 19 l772 0 0 -561z m-442 -647 c760 -549 1391 -1011 1403
-1026 30 -38 37 -121 15 -168 -30 -62 -69 -83 -167 -86 -55 -3 -95 1 -109 8
-17 9 -2454 1793 -2517 1842 -8 6 -409 -283 -1253 -902 -683 -501 -1256 -920
-1273 -931 -49 -29 -182 -27 -227 4 -49 33 -72 70 -78 125 -5 54 10 92 50 130
30 27 2760 2002 2769 2002 3 0 628 -449 1387 -998z m-303 -625 l1075 -789 0
-519 0 -519 -2157 2 -2158 3 -3 516 -2 515 1077 791 c593 436 1082 791 1086
790 4 -1 491 -357 1082 -790z m-3237 573 l2 -95 -416 -300 c-238 -171 -435
-321 -460 -348 -198 -221 -150 -577 101 -739 95 -62 172 -80 315 -76 l120 3 0
-502 0 -503 -995 0 -995 0 0 1330 0 1330 1163 -2 1162 -3 3 -95z m6632 -1230
l0 -1330 -995 0 -995 0 0 503 0 502 120 -3 c100 -3 133 0 188 17 124 37 243
134 297 241 97 191 62 430 -83 573 -26 26 -228 177 -447 336 l-400 288 -3 101
-3 102 1161 0 1160 0 0 -1330z m-2320 -2580 l0 -1080 -165 0 -165 0 0 738 c0
405 -5 771 -10 812 -18 144 -86 263 -196 346 -288 215 -705 57 -780 -295 -11
-53 -14 -212 -14 -833 l0 -768 -165 0 -165 0 0 758 c0 416 -4 782 -9 812 -53
319 -369 503 -671 390 -115 -43 -234 -160 -283 -280 l-22 -55 -5 -810 -5 -810
-167 -3 -168 -2 0 772 c0 646 -3 783 -15 836 -73 310 -407 473 -693 337 -119
-56 -202 -146 -255 -278 -22 -51 -22 -62 -27 -857 l-5 -805 -165 0 -165 0 -3
1078 -2 1077 2160 0 2160 0 0 -1080z m-4650 750 l0 -170 -1160 0 -1160 0 0
170 0 170 1160 0 1160 0 0 -170z m7308 3 l-3 -168 -1162 -3 -1163 -2 0 170 0
170 1165 0 1165 0 -2 -167z m-6098 -173 c41 -11 94 -61 109 -103 8 -19 11
-278 11 -793 l0 -764 -165 0 -165 0 0 770 c0 743 1 772 19 809 21 39 56 68
100 81 36 11 51 11 91 0z m1333 -4 c50 -18 76 -42 98 -91 18 -38 19 -84 19
-803 l0 -762 -167 2 -168 3 0 770 c0 836 -2 798 53 848 22 20 86 46 112 46 8
0 32 -6 53 -13z m1358 -12 c36 -18 67 -59 79 -104 7 -24 9 -305 8 -786 l-3
-749 -167 -3 -168 -2 0 762 c0 719 1 765 19 803 42 92 142 126 232 79z m-3901
-979 l0 -666 -82 3 -83 3 -5 345 -5 345 -27 58 c-40 85 -123 167 -211 208 -66
30 -80 33 -167 33 -87 0 -101 -3 -168 -33 -92 -43 -179 -132 -213 -218 -23
-56 -24 -71 -29 -398 l-5 -340 -165 0 -165 0 -5 340 c-5 281 -9 347 -22 381
-41 105 -119 187 -223 236 -64 30 -79 33 -165 33 -89 0 -100 -3 -170 -36 -93
-45 -162 -112 -204 -199 l-31 -65 -5 -345 -5 -345 -82 -3 -83 -3 0 666 0 665
1160 0 1160 0 0 -665z m7308 3 l-3 -663 -82 -3 -83 -3 0 293 c0 161 -4 319
-10 352 -14 88 -63 183 -121 238 -231 217 -603 111 -685 -196 -10 -38 -14
-132 -14 -368 l0 -318 -165 0 -165 0 0 283 c0 155 -5 314 -10 352 -48 337
-444 480 -691 248 -57 -53 -91 -108 -113 -182 -13 -45 -16 -110 -16 -378 l0
-323 -85 0 -85 0 0 665 0 665 1165 0 1165 0 -2 -662z m-8993 -23 l25 -24 0
-311 0 -311 -82 3 -83 3 0 308 0 309 28 24 c37 31 81 31 112 -1z m1162 1 l28
-24 0 -309 0 -308 -82 -3 -83 -3 0 311 0 311 25 24 c31 32 75 32 112 1z m6140
0 l28 -24 0 -309 0 -308 -82 -3 -83 -3 0 311 0 311 25 24 c31 32 75 32 112 1z
m1164 -5 l29 -29 0 -306 0 -306 -85 0 -85 0 0 310 0 311 26 24 c37 34 78 33
115 -4z"/>
<path d="M1925 8865 c-255 -48 -471 -214 -585 -450 -89 -184 -84 -124 -88
-1035 -3 -822 -1 -894 35 -964 30 -60 82 -113 145 -147 l63 -34 585 0 585 0
56 28 c66 32 132 99 162 165 l22 47 0 850 c0 843 0 851 -22 932 -23 88 -73
196 -125 272 -181 262 -513 396 -833 336z m-7 -577 l-3 -233 -163 -3 c-133 -2
-163 0 -168 12 -10 25 17 140 47 203 17 35 54 89 83 120 50 54 165 133 193
133 11 0 13 -48 11 -232z m374 218 c50 -21 138 -90 176 -139 63 -79 112 -203
112 -284 l0 -33 -165 0 -165 0 0 235 c0 129 2 235 4 235 2 0 19 -6 38 -14z
m-372 -951 l0 -165 -170 0 -170 0 0 165 0 165 170 0 170 0 0 -165z m660 0 l0
-165 -165 0 -165 0 0 165 0 165 165 0 165 0 0 -165z m-660 -745 l0 -250 -170
0 -170 0 0 250 0 250 170 0 170 0 0 -250z m660 0 l0 -250 -165 0 -165 0 0 250
0 250 165 0 165 0 0 -250z"/>
<path d="M8565 8865 c-313 -58 -560 -291 -652 -615 -17 -61 -18 -120 -18 -915
l0 -850 33 -67 c36 -73 86 -123 161 -160 l46 -23 585 0 c577 0 586 0 630 21
72 35 126 88 162 162 l33 67 0 840 c0 840 0 840 -23 925 -42 159 -134 317
-240 411 -199 177 -461 252 -717 204z m-7 -577 l-3 -233 -167 -3 -168 -2 0 27
c0 52 30 156 62 215 48 90 206 225 266 228 10 0 12 -50 10 -232z m402 201 c73
-39 160 -125 199 -199 31 -57 61 -162 61 -212 l0 -28 -165 0 -165 0 0 235 c0
129 3 235 6 235 3 0 32 -14 64 -31z m-400 -934 l0 -165 -170 0 -170 0 0 165 0
165 170 0 170 0 0 -165z m660 0 l0 -165 -165 0 -165 0 0 165 0 165 165 0 165
0 0 -165z m-660 -745 l0 -250 -170 0 -170 0 0 250 0 250 170 0 170 0 0 -250z
m660 0 l0 -250 -165 0 -165 0 0 250 0 250 165 0 165 0 0 -250z"/>
<path d="M5200 5209 c-369 -77 -662 -354 -762 -720 -20 -72 -23 -107 -23 -249
0 -197 18 -277 95 -435 119 -245 321 -423 578 -508 354 -118 723 -35 997 225
237 224 347 550 295 871 -46 291 -226 553 -480 702 -206 121 -465 163 -700
114z m350 -325 c36 -8 103 -33 149 -56 67 -32 102 -57 167 -122 68 -68 90 -98
127 -177 53 -110 70 -183 71 -299 0 -102 -15 -171 -59 -265 -84 -182 -245
-319 -435 -371 -87 -24 -253 -24 -339 0 -230 63 -422 259 -476 487 -19 82 -19
238 0 314 55 218 231 406 445 473 36 12 76 23 90 25 60 10 200 5 260 -9z"/>
<path d="M5070 4565 l-115 -115 190 -190 190 -190 197 0 198 0 0 165 0 165
-128 0 -127 0 -140 140 c-77 77 -142 140 -145 140 -3 0 -57 -52 -120 -115z"/>
</g>
</svg>
