<?xml version="1.0" standalone="no"?>
<!DOCTYPE svg PUBLIC "-//W3C//DTD SVG 20010904//EN"
 "http://www.w3.org/TR/2001/REC-SVG-20010904/DTD/svg10.dtd">
<svg version="1.0" xmlns="http://www.w3.org/2000/svg"
 width="1080.000000pt" height="1080.000000pt" viewBox="0 0 1080.000000 1080.000000"
 preserveAspectRatio="xMidYMid meet">

<g transform="translate(0.000000,1080.000000) scale(0.100000,-0.100000)"
fill="#000000" stroke="none">
<path d="M4253 9650 c-371 -97 -606 -487 -494 -820 38 -111 143 -316 280 -542
72 -119 131 -220 131 -223 0 -3 -16 -5 -36 -5 -52 0 -267 -45 -352 -74 -143
-48 -212 -106 -219 -183 -4 -39 0 -55 19 -83 34 -51 105 -94 210 -128 161 -52
274 -71 480 -79 l157 -6 6 -36 6 -37 197 22 c108 13 201 23 205 23 5 1 7 13 5
28 -3 26 0 28 57 40 33 6 63 12 68 13 4 0 7 -13 7 -30 0 -30 1 -30 53 -30 28
0 115 7 192 15 77 8 147 15 155 15 12 0 14 11 10 62 l-5 63 -85 -2 -85 -2 43
46 c43 44 44 47 40 100 -4 44 -11 60 -39 89 -71 73 -240 134 -468 167 -56 9
-105 18 -108 21 -3 2 42 80 99 173 195 313 282 487 320 636 19 74 20 91 10
173 -23 182 -117 352 -254 462 -172 136 -400 186 -605 132z m367 -103 c226
-80 374 -271 404 -524 18 -145 -92 -375 -434 -913 -75 -118 -142 -226 -149
-239 -17 -31 -18 -29 -126 144 -463 739 -529 893 -480 1103 36 153 164 318
302 390 147 77 331 92 483 39z m-347 -1634 c23 -38 58 -94 76 -125 38 -67 66
-91 91 -78 9 5 49 62 88 128 39 65 77 124 85 130 26 22 272 -15 429 -64 84
-27 161 -78 166 -111 10 -65 -189 -143 -455 -178 -151 -20 -495 -20 -646 0
-127 17 -284 54 -349 83 -56 25 -108 69 -108 92 0 67 204 145 466 179 117 15
109 18 157 -56z"/>
<path d="M4339 9327 c-245 -69 -331 -359 -162 -547 25 -28 69 -63 97 -78 45
-24 62 -27 146 -27 89 0 99 2 158 34 74 40 116 85 150 161 32 69 36 169 8 248
-23 69 -101 153 -170 186 -65 31 -163 41 -227 23z m191 -108 c83 -42 133 -124
134 -219 1 -54 -4 -73 -26 -112 -55 -92 -139 -136 -242 -125 -63 6 -102 25
-146 69 -110 110 -87 296 47 379 64 40 164 44 233 8z"/>
<path d="M6715 7743 l-90 -4 3 -64 4 -65 198 0 c109 0 201 3 203 8 2 4 2 35
-1 70 l-4 62 -112 -2 c-61 -1 -151 -4 -201 -5z"/>
<path d="M7180 7687 l0 -64 98 -6 c53 -4 145 -7 205 -7 l107 0 0 64 0 63 -52
7 c-29 3 -122 6 -205 6 l-153 0 0 -63z"/>
<path d="M6272 7726 l-203 -8 7 -67 c3 -36 7 -67 8 -68 1 -1 74 2 161 7 88 5
179 10 203 10 l42 0 -1 48 c-2 94 14 88 -217 78z"/>
<path d="M7730 7671 l0 -71 63 0 c35 0 123 -5 196 -11 73 -6 135 -9 137 -6 2
2 7 31 10 64 8 73 16 69 -151 78 -66 3 -150 8 -187 11 l-68 6 0 -71z"/>
<path d="M5723 7691 l-202 -14 6 -66 c3 -36 6 -67 7 -68 1 -1 83 4 181 12 99
8 190 15 203 15 20 0 22 5 21 53 -1 89 14 84 -216 68z"/>
<path d="M8276 7641 c-8 -72 -4 -81 34 -81 16 0 102 -9 191 -21 89 -11 165
-17 169 -12 4 4 11 33 14 64 l7 57 -33 6 c-28 5 -97 14 -329 42 l-46 5 -7 -60z"/>
<path d="M8826 7583 c-4 -21 -9 -50 -12 -64 -5 -26 -4 -27 88 -44 51 -9 138
-28 192 -42 54 -13 102 -20 107 -16 4 4 14 33 22 64 l15 57 -27 6 c-14 3 -96
21 -181 41 -198 45 -196 45 -204 -2z"/>
<path d="M9377 7492 c-16 -27 -38 -115 -31 -122 5 -4 40 -18 78 -30 56 -18
161 -59 273 -107 7 -3 24 20 42 55 l30 60 -57 25 c-117 53 -330 128 -335 119z"/>
<path d="M9862 7221 l-32 -58 83 -51 c45 -27 115 -77 154 -111 40 -34 76 -61
81 -61 4 0 27 20 50 43 l43 44 -54 49 c-55 50 -207 158 -263 187 l-30 16 -32
-58z"/>
<path d="M4260 6979 c-688 -27 -1284 -93 -2015 -224 -77 -14 -192 -35 -255
-46 -63 -11 -218 -41 -345 -65 -126 -25 -282 -54 -345 -65 -410 -70 -823 -164
-900 -204 -47 -25 -137 -131 -162 -192 l-23 -58 0 -917 0 -917 -32 -28 -33
-28 -2 -159 -3 -159 280 -128 279 -127 14 -53 c16 -64 50 -103 109 -125 81
-31 158 -1 199 79 8 15 22 27 30 27 13 0 1075 -258 1195 -290 33 -9 37 -14 58
-84 42 -138 106 -214 211 -251 81 -29 163 -2 241 82 25 26 50 57 56 67 10 17
26 15 335 -52 l325 -70 739 39 c407 21 762 39 789 39 l51 0 29 -67 c20 -46 47
-86 85 -124 77 -78 127 -94 290 -94 112 0 130 3 175 24 68 33 172 141 215 224
l35 67 75 0 c41 0 260 7 485 15 226 8 431 15 457 15 45 0 47 1 52 33 3 17 7
127 10 243 l5 211 -39 54 -39 54 -4 1180 c-5 1221 -9 1359 -47 1523 -30 127
-22 115 -267 367 -44 46 -62 57 -134 80 -169 53 -463 88 -879 105 -278 11
-1008 11 -1300 -1z m1910 -77 c52 -11 113 -27 136 -35 187 -68 324 -209 402
-415 l19 -50 -41 -6 c-22 -3 -394 -8 -826 -12 -711 -6 -1626 3 -2251 22 l-217
7 8 27 c12 43 39 91 91 160 152 206 323 280 720 309 79 6 162 13 184 15 22 2
409 2 860 1 789 -2 824 -3 915 -23z m-2452 -5 c-10 -7 -45 -28 -79 -47 -131
-74 -247 -208 -300 -345 l-27 -70 -69 -7 c-37 -4 -264 -26 -503 -48 -636 -59
-2047 -204 -2295 -235 -156 -19 -145 -21 -145 20 0 110 136 202 365 249 599
124 1789 323 2545 426 338 45 501 67 515 68 6 1 2 -4 -7 -11z m-408 -2163 c0
-1525 -1 -1606 -17 -1602 -10 2 -113 29 -229 58 l-211 54 -7 1529 c-4 841 -6
1530 -4 1532 5 6 329 32 406 34 l62 1 0 -1606z m2182 1573 c702 -7 1280 -16
1285 -20 8 -8 30 -1524 22 -1531 -2 -2 -764 -5 -1694 -7 l-1690 -4 -3 788 -2
787 402 -1 c222 0 978 -6 1680 -12z m-2762 -586 c0 -314 -3 -572 -7 -574 -6
-3 -545 28 -571 33 -1 0 -1 242 0 538 l3 537 165 12 c224 16 264 19 343 21
l67 2 0 -569z m-680 -12 l0 -521 -117 6 c-65 3 -189 9 -276 12 l-157 6 2 487
3 486 235 21 c129 12 252 22 273 23 l37 1 0 -521z m-680 264 c0 -104 -3 -313
-7 -466 l-6 -277 -226 6 c-124 4 -227 7 -228 8 -1 1 -5 196 -9 434 -6 368 -5
432 7 433 8 0 108 11 224 23 116 13 218 24 228 25 16 1 17 -14 17 -186z m-620
-305 l0 -421 -122 6 c-66 4 -170 7 -230 7 l-108 0 0 399 0 398 208 12 c114 7
214 14 222 16 8 1 18 3 23 4 4 0 7 -189 7 -421z m518 -538 c471 -22 994 -47
1160 -54 167 -8 305 -16 307 -18 1 -2 4 -93 6 -203 l4 -200 -35 3 c-179 12
-2325 183 -2357 188 l-43 5 0 160 0 159 50 0 c28 0 436 -18 908 -40z m312
-498 l1165 -107 2 -290 3 -290 -18 52 c-35 101 -90 155 -181 179 -67 17 -95 8
-151 -46 -54 -53 -102 -141 -128 -233 -21 -79 -21 -335 1 -452 8 -44 13 -81
12 -83 -1 -2 -274 68 -606 156 l-604 158 0 245 c-1 227 -2 249 -24 314 -50
153 -130 265 -187 265 -66 0 -175 -87 -198 -158 -27 -80 -37 -243 -27 -418 6
-87 8 -160 7 -162 -2 -2 -77 30 -167 71 l-164 74 -3 416 -2 417 52 -1 c29 0
577 -48 1218 -107z m5204 21 c2 -10 8 -60 11 -110 l7 -93 -1696 0 -1696 0 0
110 0 110 1684 0 c1596 0 1685 -1 1690 -17z m-464 -283 c45 -32 71 -82 72
-138 0 -112 -88 -187 -200 -168 -44 7 -79 31 -110 77 -32 46 -28 138 7 188 50
69 163 90 231 41z m365 -1 c129 -88 79 -292 -76 -307 -27 -2 -62 1 -79 8 -43
18 -96 81 -104 123 -14 74 32 163 99 193 43 20 117 12 160 -17z m-2687 -4 c74
-32 113 -87 114 -165 1 -179 -206 -252 -321 -113 -115 140 39 348 207 278z
m421 -9 c101 -53 132 -188 64 -275 -123 -153 -355 -41 -319 154 8 42 58 103
101 121 40 18 119 17 154 0z m1577 -376 c737 0 783 -1 788 -17 2 -10 8 -100
11 -200 l7 -183 -1696 0 -1696 0 0 207 0 206 902 -6 c496 -4 1254 -7 1684 -7z"/>
<path d="M4760 6889 c-145 -18 -220 -32 -237 -44 -15 -11 -7 -16 68 -39 143
-44 148 -59 48 -139 -115 -93 -85 -101 346 -94 298 6 481 16 558 33 30 6 37
34 12 54 -8 7 -15 19 -15 26 0 23 112 17 414 -21 296 -37 336 -40 336 -26 0
23 -110 80 -245 127 -155 55 -171 56 -642 63 -451 6 -488 10 -455 43 7 7 12
16 12 20 0 10 -112 8 -200 -3z"/>
<path d="M2966 6744 c-65 -7 -277 -36 -470 -63 -969 -138 -1269 -193 -1399
-256 -112 -55 -100 -75 44 -75 75 0 111 5 160 23 62 21 73 22 334 17 534 -9
605 -7 650 15 29 14 48 35 68 73 16 29 39 59 52 68 40 26 185 36 388 27 298
-14 376 -1 454 77 45 44 51 69 23 92 -27 22 -124 23 -304 2z"/>
<path d="M3460 5734 c0 -486 1 -515 18 -510 9 3 39 10 66 16 180 39 422 142
495 209 42 38 43 43 39 85 -4 31 -22 71 -62 134 -58 92 -69 134 -38 151 35 19
115 23 231 11 146 -15 276 -18 314 -7 45 12 51 46 26 144 -20 79 -21 87 -6
118 22 47 97 94 207 132 l95 32 -692 0 -693 1 0 -516z"/>
<path d="M10288 6882 c-26 -20 -47 -41 -47 -45 -1 -5 15 -29 35 -55 37 -49
118 -207 129 -253 l7 -27 56 15 c31 8 61 18 65 22 21 20 -103 272 -170 348
l-28 32 -47 -37z"/>
<path d="M8466 6464 c-569 -103 -995 -617 -974 -1174 4 -103 9 -129 48 -245
78 -231 267 -589 576 -1090 71 -115 130 -212 132 -216 1 -3 -31 -9 -72 -13
-40 -4 -141 -18 -222 -31 -398 -67 -680 -197 -741 -342 -16 -39 -17 -131 -2
-170 89 -236 700 -404 1469 -404 664 -1 1200 115 1408 305 64 59 91 112 92
179 1 187 -275 350 -725 427 -71 12 -138 25 -148 29 -15 5 -5 20 58 96 l75 90
-47 42 c-27 24 -50 43 -53 43 -3 0 -53 -56 -110 -125 -58 -68 -110 -125 -117
-125 -6 0 53 102 131 228 358 570 538 921 596 1164 58 242 -14 575 -177 821
-62 93 -188 225 -284 297 -142 105 -317 181 -498 215 -103 19 -307 18 -415 -1z
m305 -144 c424 -40 774 -332 894 -744 32 -114 48 -269 35 -352 -39 -242 -289
-716 -775 -1469 -18 -27 -81 -128 -140 -223 -60 -95 -112 -169 -116 -165 -4 4
-58 91 -121 193 -63 102 -183 293 -265 425 -336 536 -515 872 -600 1123 -33
96 -36 118 -37 212 0 249 98 487 279 679 95 100 177 161 299 220 121 58 225
89 338 100 46 5 88 9 93 10 6 0 58 -4 116 -9z m-316 -2910 c163 -267 167 -274
197 -284 37 -13 73 5 99 49 18 30 24 34 36 23 13 -11 23 -5 62 39 25 28 88 96
139 151 l92 100 -45 40 c-62 55 -49 62 85 51 469 -41 903 -192 903 -314 0
-111 -343 -243 -773 -299 -727 -95 -1639 21 -1860 235 -63 61 -51 103 46 165
102 66 329 142 519 174 83 15 329 47 365 49 23 1 38 -19 135 -179z"/>
<path d="M8555 5898 c-27 -5 -88 -27 -134 -49 -140 -68 -243 -189 -297 -349
-29 -84 -26 -243 5 -338 87 -266 353 -433 625 -393 106 16 241 80 312 148 237
227 243 596 13 823 -139 138 -328 195 -524 158z m289 -181 c150 -70 246 -219
246 -381 0 -163 -93 -306 -245 -378 -65 -30 -78 -33 -170 -33 -92 0 -106 3
-167 32 -167 79 -256 226 -246 408 5 105 43 188 119 264 94 92 168 121 304
118 85 -2 109 -6 159 -30z"/>
<path d="M10486 6381 l-40 -6 4 -60 c6 -81 6 -175 0 -260 l-5 -70 63 -8 c35
-5 65 -7 68 -5 9 10 16 249 9 331 -8 98 -2 93 -99 78z"/>
<path d="M10400 5793 c-7 -32 -33 -116 -57 -187 -25 -70 -41 -131 -36 -135 4
-4 31 -17 60 -28 l51 -21 35 91 c33 88 83 250 89 292 2 16 -6 22 -47 31 -81
20 -80 20 -95 -43z"/>
<path d="M10176 5223 c-36 -71 -79 -151 -95 -180 l-31 -52 58 -35 57 -35 23
37 c12 20 56 103 97 184 l75 148 -60 30 -60 30 -64 -127z"/>
<path d="M9871 4705 c-61 -91 -111 -167 -111 -169 0 -5 98 -76 104 -76 5 0
168 241 205 303 26 43 26 43 -51 87 l-37 21 -110 -166z"/>
<path d="M9555 4268 c-65 -84 -119 -157 -121 -163 -4 -10 93 -92 99 -84 2 2
30 38 63 79 91 114 186 241 182 244 -1 1 -21 16 -43 32 -22 17 -45 34 -52 37
-7 5 -56 -51 -128 -145z"/>
</g>
</svg>
