<?xml version="1.0" standalone="no"?>
<!DOCTYPE svg PUBLIC "-//W3C//DTD SVG 20010904//EN"
 "http://www.w3.org/TR/2001/REC-SVG-20010904/DTD/svg10.dtd">
<svg version="1.0" xmlns="http://www.w3.org/2000/svg"
 width="1080.000000pt" height="1080.000000pt" viewBox="0 0 1080.000000 1080.000000"
 preserveAspectRatio="xMidYMid meet">

<g transform="translate(0.000000,1080.000000) scale(0.100000,-0.100000)"
fill="#000000" stroke="none">
<path d="M1835 9575 l-25 -24 0 -431 0 -430 -764 0 c-788 0 -815 -1 -836 -40
-6 -12 -10 -376 -10 -993 l0 -974 23 -21 c23 -21 30 -22 285 -22 l262 0 2
-2491 3 -2491 28 -24 28 -24 4569 0 4569 0 28 24 28 24 3 2491 2 2491 263 0
c263 0 264 0 285 23 l22 23 0 975 0 976 -26 24 -26 24 -779 3 -779 2 0 431 0
430 -25 24 -24 25 -3541 0 -3541 0 -24 -25z m3399 -147 c-17 -30 -92 -118
-158 -186 -226 -234 -483 -387 -819 -487 -56 -16 -92 -33 -100 -45 -12 -20
-29 -20 -1099 -20 l-1088 0 0 375 0 375 1636 0 c1305 0 1634 -3 1628 -12z
m3596 -363 l0 -375 -1089 0 c-1089 0 -1089 0 -1102 21 -10 14 -50 31 -131 55
-280 82 -513 216 -723 416 -88 84 -195 204 -219 246 -6 9 323 12 1628 12
l1636 0 0 -375z m-3387 252 c117 -162 294 -332 471 -451 125 -85 329 -185 474
-232 111 -36 112 -36 119 -73 4 -20 7 -139 6 -266 0 -257 -20 -423 -73 -628
-133 -515 -467 -947 -973 -1256 l-68 -41 -95 59 c-210 133 -442 334 -575 499
-319 397 -466 880 -445 1464 3 98 9 184 12 192 3 8 63 34 132 57 145 49 337
143 459 226 151 101 364 304 463 441 25 34 47 61 50 61 3 0 22 -23 43 -52z
m-1317 -1040 c1 -195 5 -269 22 -382 12 -77 22 -143 22 -147 0 -5 -857 -8
-1905 -8 l-1905 0 0 390 0 390 1883 0 1882 0 1 -243z m6314 -147 l0 -390
-1906 0 -1907 0 7 48 c4 26 14 97 23 157 10 72 16 190 17 342 l1 233 1883 0
1882 0 0 -390z m-6191 -652 c62 -191 188 -430 316 -598 23 -30 45 -61 49 -67
6 -10 -422 -13 -2123 -13 l-2131 0 0 390 0 390 1928 0 1928 0 33 -102z m6191
-288 l0 -390 -2130 0 c-1172 0 -2130 2 -2130 4 0 3 26 40 59 83 129 171 240
381 308 582 l38 111 1928 0 1927 0 0 -390z m-5592 -618 c204 -182 486 -372
551 -372 64 0 346 190 553 372 l77 68 1915 0 1916 0 0 -2435 0 -2435 -1365 0
-1365 0 0 1144 0 1145 189 3 c185 3 190 4 215 27 l26 24 0 424 c0 408 -1 424
-20 443 -11 11 -30 22 -42 25 -13 3 -967 4 -2121 3 l-2099 -3 -19 -24 c-18
-22 -19 -45 -19 -443 0 -254 4 -427 10 -438 17 -32 67 -40 247 -40 l173 0 -2
-1142 -3 -1143 -1362 -3 -1363 -2 0 2435 0 2435 1916 0 1916 0 76 -68z m2552
-2032 l0 -310 -2000 0 -2000 0 0 310 0 310 2000 0 2000 0 0 -310z m-430 -1625
l0 -1145 -85 0 -85 0 0 965 c0 1078 3 1024 -67 1045 -27 8 -413 10 -1361 8
l-1324 -3 -24 -28 -24 -28 0 -980 0 -979 -85 0 -85 0 0 1145 0 1145 1570 0
1570 0 0 -1145z m-340 -220 l0 -925 -1232 2 -1233 3 -3 923 -2 922 1235 0
1235 0 0 -925z"/>
<path d="M5368 9073 c-10 -2 -43 -40 -74 -85 -174 -249 -437 -414 -809 -507
-45 -11 -85 -28 -92 -37 -36 -50 17 -495 88 -739 119 -406 322 -733 594 -954
144 -117 280 -201 326 -201 18 0 63 21 120 56 454 281 748 747 854 1355 22
126 45 330 45 405 0 77 -18 95 -120 119 -348 83 -619 253 -792 500 -61 87 -86
102 -140 88z m87 -285 c96 -117 253 -237 425 -323 89 -45 273 -114 347 -130
l33 -7 -6 -56 c-52 -505 -185 -878 -413 -1165 -81 -101 -244 -253 -350 -326
l-91 -62 -57 37 c-406 257 -675 704 -767 1274 -16 102 -38 292 -34 295 2 1 62
20 133 43 274 87 519 240 666 416 30 36 56 66 59 65 3 0 28 -27 55 -61z"/>
<path d="M5343 8558 c-11 -13 -64 -103 -117 -200 l-97 -177 -195 -3 -196 -3
-24 -28 c-45 -53 -37 -67 124 -229 l147 -149 -57 -224 c-59 -228 -61 -253 -26
-282 40 -34 60 -28 275 86 115 61 215 111 223 111 7 0 107 -50 222 -111 223
-118 243 -123 284 -78 26 29 22 61 -35 276 -28 106 -51 200 -51 210 0 9 65 83
145 163 158 160 166 174 121 227 l-24 28 -197 5 -197 5 -98 178 c-54 98 -106
187 -115 197 -26 28 -85 27 -112 -2z m140 -372 c42 -79 85 -150 94 -157 11
-10 53 -15 130 -18 l114 -3 -84 -87 c-46 -47 -87 -96 -91 -107 -4 -13 10 -84
33 -173 22 -83 37 -151 34 -151 -3 0 -70 34 -150 75 -80 41 -154 75 -164 75
-10 0 -84 -34 -164 -76 -81 -42 -148 -74 -150 -72 -2 2 14 70 35 151 31 118
37 154 29 175 -6 15 -46 64 -91 108 l-80 82 114 3 c76 3 120 9 131 17 9 8 51
78 94 158 43 79 80 144 83 144 3 0 40 -65 83 -144z"/>
<path d="M1552 6065 c-18 -8 -37 -26 -43 -41 -6 -17 -9 -133 -7 -312 l3 -284
24 -19 c23 -19 98 -19 3880 -19 l3858 0 21 23 c22 23 22 29 22 316 0 171 -4
300 -10 311 -5 10 -24 23 -41 29 -23 8 -1088 11 -3853 11 -3273 -1 -3826 -3
-3854 -15z m7598 -335 l0 -180 -3740 0 -3740 0 0 180 0 180 3740 0 3740 0 0
-180z"/>
<path d="M1439 4101 l-29 -29 0 -742 0 -741 25 -24 24 -25 744 0 c738 0 745 0
771 21 l26 20 0 744 c0 409 -3 751 -6 760 -18 45 -20 45 -794 45 l-732 0 -29
-29z m686 -411 l0 -275 -275 0 -275 0 -3 265 c-1 146 0 270 3 278 3 10 63 12
277 10 l273 -3 0 -275z m715 0 l0 -280 -275 0 -275 0 0 280 0 280 275 0 275 0
0 -280z m-710 -715 l0 -275 -280 0 -280 0 0 275 0 275 280 0 280 0 0 -275z
m710 0 l0 -275 -275 0 -275 0 0 275 0 275 275 0 275 0 0 -275z"/>
<path d="M7843 4120 c-12 -5 -26 -18 -32 -29 -8 -13 -11 -256 -11 -764 l0
-744 23 -21 23 -22 747 0 c730 0 747 0 767 20 11 11 22 30 25 42 3 13 4 351 3
751 l-3 729 -28 24 -28 24 -732 -1 c-403 0 -742 -4 -754 -9z m667 -430 l0
-280 -275 0 -275 0 0 280 0 280 275 0 275 0 0 -280z m715 0 l0 -275 -275 0
-275 0 -3 265 c-1 146 0 270 3 278 3 10 63 12 277 10 l273 -3 0 -275z m-715
-715 l0 -275 -275 0 -275 0 0 275 0 275 275 0 275 0 0 -275z m720 0 l0 -275
-280 0 -280 0 0 275 0 275 280 0 280 0 0 -275z"/>
</g>
</svg>
